<?xml version="1.0" encoding="UTF-8" standalone="no"?>
<!-- Created with Inkscape (http://www.inkscape.org/) -->
<svg
   xmlns:dc="http://purl.org/dc/elements/1.1/"
   xmlns:cc="http://creativecommons.org/ns#"
   xmlns:rdf="http://www.w3.org/1999/02/22-rdf-syntax-ns#"
   xmlns:svg="http://www.w3.org/2000/svg"
   xmlns="http://www.w3.org/2000/svg"
   xmlns:sodipodi="http://sodipodi.sourceforge.net/DTD/sodipodi-0.dtd"
   xmlns:inkscape="http://www.inkscape.org/namespaces/inkscape"
   id="svg2472"
   sodipodi:version="0.32"
   inkscape:version="0.46"
   width="181"
   height="181"
   version="1.0"
   sodipodi:docname="World Bank Logo.svg"
   inkscape:output_extension="org.inkscape.output.svg.inkscape">
  <metadata
     id="metadata2477">
    <rdf:RDF>
      <cc:Work
         rdf:about="">
        <dc:format>image/svg+xml</dc:format>
        <dc:type
           rdf:resource="http://purl.org/dc/dcmitype/StillImage" />
      </cc:Work>
    </rdf:RDF>
  </metadata>
  <defs
     id="defs2475">
    <inkscape:perspective
       sodipodi:type="inkscape:persp3d"
       inkscape:vp_x="0 : 526.18109 : 1"
       inkscape:vp_y="0 : 1000 : 0"
       inkscape:vp_z="744.09448 : 526.18109 : 1"
       inkscape:persp3d-origin="372.04724 : 350.78739 : 1"
       id="perspective2479" />
  </defs>
  <sodipodi:namedview
     inkscape:window-height="744"
     inkscape:window-width="1280"
     inkscape:pageshadow="2"
     inkscape:pageopacity="0.0"
     guidetolerance="10.0"
     gridtolerance="10.0"
     objecttolerance="10.0"
     borderopacity="1.0"
     bordercolor="#666666"
     pagecolor="#ffffff"
     id="base"
     showgrid="false"
     inkscape:zoom="1.890827"
     inkscape:cx="-124.66516"
     inkscape:cy="86.967983"
     inkscape:window-x="-4"
     inkscape:window-y="-4"
     inkscape:current-layer="svg2472" />
  <path
     style="fill:#000000"
     d="M 0,90.499997 L 0,2.2e-06 L 90.500007,2.2e-06 L 181.00001,2.2e-06 L 181.00001,90.499997 L 181.00001,181 L 90.500007,181 L 0,181 L 0,90.499997 z M 110.47136,166.00733 C 139.56646,158.56605 161.75842,134.5381 167.59102,104.16203 C 175.27989,64.118582 148.96026,24.276222 108.24097,14.318562 C 98.512335,11.939482 80.725747,12.177242 70.856474,14.818282 C 43.662499,22.095472 22.192362,43.555442 14.791749,70.856471 C 11.80211,81.885316 11.814219,99.659181 14.818621,110.29918 C 23.515906,141.10037 48.157408,163.05022 79.538917,167.94991 C 87.600747,169.20863 101.32415,168.34679 110.47136,166.00733 z M 82.000007,161.98476 C 52.468035,158.47707 28.46863,137.79625 20.861651,109.30048 C 17.894217,98.184461 17.906696,82.263353 20.891243,71.545064 C 29.823735,39.466152 57.127697,18.722082 90.500007,18.660122 C 103.94756,18.635162 111.12993,20.346852 123.90358,26.620812 C 150.18082,39.527262 166.01786,69.318372 162.28865,98.827121 C 160.07435,116.34864 153.5025,129.73733 141.09306,142.00839 C 125.93913,156.99335 103.58852,164.54896 82.000007,161.98476 z M 86.682317,139.5 L 86.651037,125 L 84.272927,125 C 80.277137,125 68,128.09979 68,129.10867 C 68,130.59762 73.826097,141.91544 77.848917,148.24125 C 80.759937,152.81877 82.028397,153.98428 84.106797,153.99125 L 86.713587,154 L 86.682317,139.5 z M 103.79716,147.57936 C 108.15435,140.95207 112.97307,131.38642 112.99024,129.33015 C 112.99561,128.68674 109.87368,127.44924 106.0526,126.58015 C 94.079295,123.85688 95.000005,122.78063 95.000005,139.5 C 95.000005,153.94156 95.009225,154 97.287915,154 C 98.995925,154 100.64577,152.37262 103.79716,147.57936 z M 65.167382,141.75 C 62.600322,136.6625 60.41921,132.34421 60.320467,132.1538 C 60.221724,131.96339 57.384494,133.27677 54.015512,135.07242 L 47.89009,138.33723 L 50.695045,140.66328 C 52.95415,142.53667 68.378124,151 69.533178,151 C 69.699051,151 67.734443,146.8375 65.167382,141.75 z M 121.97181,145.93126 C 125.01232,144.30899 128.81004,141.93532 130.41119,140.65645 L 133.32238,138.33122 L 127.78947,135.16561 C 124.74637,133.42452 121.95784,132 121.59275,132 C 121.22765,132 120.10467,133.9125 119.09724,136.25 C 118.08981,138.5875 115.87931,142.84242 114.18503,145.70538 L 111.10452,150.91076 L 113.77407,149.8958 C 115.24232,149.33757 118.93131,147.55353 121.97181,145.93126 z M 56.404156,123 C 54.463897,117.58069 51,102.12726 51,98.890521 L 51,94.999997 L 38.912102,94.999997 L 26.824204,94.999997 L 27.47973,99.250001 C 29.142919,110.03304 33.214959,120.23449 39.197251,128.60525 L 42.131131,132.71049 L 49.536163,128.60525 C 54.783982,125.69593 56.784747,124.06302 56.404156,123 z M 143.40564,126.57621 C 147.87511,119.84267 150.71462,113.30301 152.55313,105.50868 C 155.17003,94.414384 155.73026,94.999997 142.50001,94.999997 C 136.17501,94.999997 131.00001,95.166051 131.00001,95.369007 C 131.00001,98.084501 127.57765,113.93137 126.00661,118.49039 C 124.87125,121.7851 124.2928,124.60329 124.72117,124.75302 C 125.14953,124.90276 128.20001,126.56529 131.50001,128.44754 C 134.80001,130.32978 138.01875,131.89909 138.65277,131.9349 C 139.28679,131.9707 141.42558,129.55929 143.40564,126.57621 z M 79.501327,117.47242 C 82.250607,117.07383 85.000437,116.35089 85.612077,115.86588 C 86.295137,115.32424 86.724147,111.12937 86.724147,104.99203 L 86.724147,94.999997 L 72.862069,94.999997 L 59,94.999997 L 59.007006,97.750001 C 59.014588,100.72609 62.218756,114.83127 63.873797,119.17427 L 64.892914,121.84854 L 69.697786,120.02283 C 72.340465,119.0187 76.752057,117.87101 79.501327,117.47242 z M 119.52054,111.51791 C 120.88425,106.14201 122.00001,100.22625 122.00001,98.371771 L 122.00001,94.999997 L 108.46618,94.999997 L 94.932335,94.999997 L 95.216175,105.73804 L 95.500005,116.47608 L 100.50001,117.20345 C 103.25001,117.6035 107.97501,118.78831 111.00001,119.83635 C 114.02501,120.88438 116.62175,121.64071 116.77054,121.51707 C 116.91933,121.39343 118.15683,116.89381 119.52054,111.51791 z M 51,83.065373 C 51,79.277669 53.449544,67.736152 55.44449,62.124272 C 57.458223,56.459542 57.423458,56.111492 54.742085,55.092042 C 53.500232,54.619882 50.134896,52.848402 47.263561,51.155402 L 42.042953,48.077222 L 39.156,52.288612 C 33.044128,61.204402 29.122487,71.099427 27.47973,81.749997 L 26.824204,85.999997 L 38.912102,85.999997 L 51,85.999997 L 51,83.065373 z M 86.635457,75.26344 L 86.500007,64.526882 L 81.247327,63.771282 C 78.358357,63.355702 73.499607,62.138742 70.450107,61.066932 L 64.905566,59.118182 L 63.87859,61.809092 C 62.109458,66.444622 59.994085,75.285693 59.346666,80.749997 L 58.724637,85.999997 L 72.747772,85.999997 L 86.770907,85.999997 L 86.635457,75.26344 z M 121.64005,79.749997 C 121.28538,76.312497 120.02459,70.216858 118.83831,66.204132 C 117.10179,60.330172 116.37142,59.041212 115.09072,59.590412 C 111.36123,61.189722 100.32359,64.000002 97.771645,64.000002 L 95.000005,64.000002 L 95.000005,74.999997 L 95.000005,85.999997 L 108.64247,85.999997 L 122.28492,85.999997 L 121.64005,79.749997 z M 154.00001,83.65996 C 154.00001,79.632512 150.24213,66.409812 147.65837,61.345882 C 146.29849,58.680642 143.77754,54.568612 142.05626,52.208022 L 138.92665,47.916042 L 136.21333,49.827432 C 134.721,50.878702 131.47501,52.752902 129.00001,53.992332 C 126.52501,55.231762 124.38271,56.345332 124.23933,56.466932 C 124.09596,56.588532 124.67844,58.670712 125.53372,61.094012 C 127.06288,65.426592 129.27062,74.874839 130.47715,82.249997 L 131.09064,85.999997 L 142.54532,85.999997 C 153.88818,85.999997 154.00001,85.977152 154.00001,83.65996 z M 86.602947,41.250002 L 86.705887,27.000002 L 84.102947,27.008742 C 82.034467,27.015692 80.741157,28.196342 77.804277,32.758742 C 71.733581,42.189472 67.542033,50.942032 68.593073,51.993072 C 69.879391,53.279392 80.895387,55.921182 84.000007,55.687872 L 86.500007,55.500002 L 86.602947,41.250002 z M 109.04567,53.393792 L 113.99103,51.925182 L 110.86215,45.726902 C 104.6899,33.499742 100.02105,27.000002 97.410365,27.000002 L 95.000005,27.000002 L 95.000005,41.613542 L 95.000005,56.227082 L 99.550155,55.544752 C 102.05275,55.169462 106.32573,54.201532 109.04567,53.393792 z M 62.435065,43.750002 C 63.76048,40.862502 66.033029,36.582942 67.485175,34.239872 L 70.125441,29.979742 L 64.902364,32.038482 C 59.9878,33.975622 47.577149,41.910482 48.312211,42.645542 C 48.718583,43.051912 59.387919,48.956032 59.76261,48.981882 C 59.907045,48.991842 61.10965,46.637502 62.435065,43.750002 z M 129.85114,39.834932 C 126.8786,37.370212 113.31253,30.000002 111.74837,30.000002 C 111.41702,30.000002 112.57559,32.375312 114.32297,35.278482 C 116.07034,38.181652 118.3522,42.448562 119.39377,44.760502 L 121.28754,48.964032 L 127.2449,45.788792 L 133.20226,42.613552 L 129.85114,39.834932 z"
     id="path2483" />
</svg>
